<svg width="1366" height="376" viewBox="0 0 1366 376" fill="none" xmlns="http://www.w3.org/2000/svg">
<rect y="51.6641" width="1366" height="324.336" fill="#2F4858"/>
<path d="M0 59.318L4.50874e-06 22.5146C5.91445 23.6964 11.5923 25.3846 17.7433 25.8911C21.0554 26.2287 23.6579 26.904 26.2602 28.2546C30.7552 30.6181 35.4868 32.1375 41.6378 30.9558C48.4985 29.6052 54.413 27.0728 62.2201 27.0728C70.9734 27.0728 80.1999 25.3846 88.9533 23.8652C93.6849 23.0211 97.7067 23.6964 101.965 25.3846C108.353 27.9169 114.977 27.9169 122.311 26.904C132.01 25.5534 141.947 22.177 151.883 26.3975C153.539 27.0728 156.141 27.0728 158.034 26.5664C163.475 25.2158 168.917 25.5534 174.358 25.2158C182.165 24.7093 189.972 23.5276 198.016 24.3717C200.145 24.5405 203.93 24.034 204.64 23.0211C208.898 17.4499 215.759 16.6058 223.566 16.0994C226.405 15.9305 229.007 15.5929 231.136 16.9435C232.793 17.9564 234.685 18.2941 236.814 18.2941C242.256 18.4629 247.697 18.9694 253.138 19.1382C257.633 19.307 261.655 18.4629 264.731 15.7617C266.15 14.4111 268.043 14.0735 270.172 13.7358C275.14 13.0606 279.872 13.9047 284.13 15.7617C287.205 16.9435 289.808 16.9435 293.12 16.7747C300.927 16.0994 308.971 15.9305 316.778 15.2553C322.219 14.7488 327.424 16.6058 332.628 16.2682C341.855 15.5929 350.845 15.5929 359.835 17.45C367.642 18.9694 376.632 17.9564 383.729 21.6705C384.439 22.0082 385.385 21.6705 386.095 21.6705C389.644 21.3329 393.192 20.9952 396.741 22.177C398.397 22.8523 400.526 22.3458 401.472 21.3329C404.548 18.1252 408.097 18.8005 411.882 20.4888C413.301 21.1641 414.721 20.8264 416.377 20.9952C427.023 21.3329 437.906 19.6447 448.551 22.0082C455.176 23.5276 462.273 21.6705 468.897 23.5276C470.08 23.8652 471.5 23.1899 472.919 23.1899C476.704 22.8523 478.597 19.8135 481.672 19.8135C492.318 19.4758 502.728 18.9694 512.191 15.0864C513.137 14.7488 514.557 14.7488 515.74 14.9176C521.654 15.9306 527.332 14.58 533.01 13.567C538.924 12.7229 544.839 11.5412 550.753 12.2165C554.538 12.7229 557.377 14.0735 561.872 13.3982C570.389 11.8788 579.142 10.8659 587.186 8.16472C590.735 6.98296 594.047 6.64531 597.595 6.81413C599.015 6.81413 600.198 6.81413 601.617 6.64531C609.897 5.63237 618.178 3.10003 626.931 4.45061C628.824 4.78826 630.243 3.77533 631.899 3.43768C637.104 2.25592 642.545 0.567693 648.223 2.25592C652.008 3.26886 655.557 3.6065 659.579 3.77532C674.483 4.11297 688.441 7.32061 701.926 11.5412C705.475 12.5541 708.314 12.5541 711.626 11.8788C715.884 11.0347 719.67 9.34648 723.928 9.00884C730.552 8.50237 737.176 9.17766 743.564 10.8659C745.22 11.3724 747.586 12.2165 749.005 11.2035C753.973 8.16472 758.468 9.85295 763.2 11.2035C768.878 13.0606 774.082 12.0476 778.577 8.67119C780.234 7.32061 782.363 6.64532 784.965 6.64532C793.009 6.30767 800.816 5.12592 807.676 1.91828C809.806 1.07417 812.171 -0.614057 815.247 0.230057C823.054 2.25593 832.044 1.07417 839.614 4.11298C844.109 5.97003 847.895 6.13886 853.336 4.28181C861.853 1.243 871.079 2.25594 879.833 5.63239C884.801 7.65827 889.532 10.6971 896.157 8.50238C896.393 8.33356 897.103 8.6712 897.576 8.84003C902.071 11.2035 907.986 11.8788 912.48 14.4112C921.944 19.9823 932.826 21.8394 944.892 18.9694C945.838 18.8006 947.021 18.9694 947.967 18.9694C956.721 19.9823 966.184 18.8006 974.7 21.3329C975.174 21.5017 976.12 21.3329 976.593 21.1641C978.722 19.8135 981.088 20.32 983.454 20.4888C988.185 20.6576 992.68 20.9953 997.412 21.1641C1004.75 21.5017 1010.42 18.2941 1016.81 16.6059C1020.12 15.7618 1023.44 14.7488 1026.75 15.5929C1035.74 17.6188 1044.49 19.8135 1053.24 22.5147C1057.03 23.6964 1061.05 22.8523 1064.84 24.2029C1075.01 27.917 1086.13 28.9299 1097.72 28.0858C1104.82 27.5794 1112.15 26.5664 1119.25 28.9299C1122.32 29.9429 1126.35 30.787 1129.9 30.4494C1137.94 29.6052 1145.75 28.7611 1153.79 28.5923C1160.41 28.4235 1167.04 26.06 1173.66 28.5923C1176.97 29.7741 1180.05 28.5923 1182.89 27.4106C1191.41 24.2029 1199.92 21.5018 1210.1 22.177C1214.59 22.3459 1218.61 23.19 1222.87 24.0341C1225.71 24.5406 1228.78 24.8782 1230.2 22.6835C1232.1 19.8135 1235.17 19.6447 1238.48 19.6447C1242.51 19.6447 1246.53 19.8135 1250.55 19.6447C1257.17 19.1382 1263.33 19.1382 1269.71 20.8265C1274.44 22.177 1279.18 24.2029 1284.38 23.5276C1287.69 23.19 1291 23.5276 1294.08 24.2029C1300.94 25.5535 1308.51 26.3976 1314.66 24.5406C1328.15 20.1512 1342.82 20.32 1356.3 17.45C1359.61 16.7747 1362.92 17.1124 1366 17.45V59.3181L0 59.318Z" fill="#2F4858"/>
</svg>
