<svg width="1367" height="120" viewBox="0 0 1367 120" fill="none" xmlns="http://www.w3.org/2000/svg">
<path d="M1367 85.071V106.742C1361.08 106.047 1355.4 105.052 1349.24 104.754C1345.93 104.555 1343.32 104.158 1340.72 103.363C1336.22 101.971 1331.49 101.076 1325.33 101.772C1318.47 102.567 1312.55 104.058 1304.73 104.058C1295.97 104.058 1286.74 105.052 1277.98 105.947C1273.25 106.444 1269.22 106.047 1264.96 105.052C1258.57 103.561 1251.94 103.561 1244.6 104.158C1234.89 104.953 1224.95 106.941 1215.01 104.456C1213.35 104.058 1210.74 104.058 1208.85 104.357C1203.41 105.152 1197.96 104.953 1192.51 105.152C1184.7 105.45 1176.89 106.146 1168.84 105.649C1166.71 105.55 1162.92 105.848 1162.21 106.444C1157.95 109.725 1151.08 110.222 1143.27 110.52C1140.43 110.619 1137.82 110.818 1135.69 110.023C1134.04 109.427 1132.14 109.228 1130.01 109.228C1124.57 109.128 1119.12 108.83 1113.68 108.731C1109.18 108.631 1105.15 109.128 1102.08 110.719C1100.66 111.514 1098.76 111.713 1096.63 111.912C1091.66 112.309 1086.92 111.812 1082.66 110.719C1079.58 110.023 1076.98 110.023 1073.67 110.122C1065.85 110.52 1057.8 110.619 1049.99 111.017C1044.55 111.315 1039.34 110.222 1034.13 110.421C1024.89 110.818 1015.9 110.818 1006.9 109.725C999.089 108.83 990.092 109.427 982.99 107.24C982.28 107.041 981.333 107.24 980.622 107.24C977.071 107.438 973.52 107.637 969.969 106.941C968.311 106.544 966.181 106.842 965.234 107.438C962.156 109.327 958.605 108.929 954.817 107.935C953.396 107.538 951.975 107.737 950.318 107.637C939.664 107.438 928.774 108.432 918.12 107.041C911.491 106.146 904.389 107.24 897.76 106.146C896.576 105.947 895.155 106.345 893.735 106.345C889.947 106.544 888.053 108.333 884.975 108.333C874.321 108.532 863.904 108.83 854.434 111.117C853.487 111.315 852.067 111.315 850.883 111.216C844.964 110.619 839.282 111.415 833.6 112.011C827.681 112.508 821.763 113.204 815.844 112.806C812.056 112.508 809.215 111.713 804.716 112.111C796.193 113.005 787.434 113.602 779.384 115.192C775.833 115.888 772.518 116.087 768.967 115.988C767.547 115.988 766.363 115.988 764.942 116.087C756.656 116.683 748.37 118.175 739.61 117.379C737.716 117.181 736.295 117.777 734.638 117.976C729.43 118.672 723.984 119.666 718.302 118.672C714.514 118.075 710.963 117.876 706.938 117.777C692.023 117.578 678.055 115.689 664.56 113.204C661.009 112.608 658.168 112.608 654.853 113.005C650.592 113.502 646.804 114.496 642.542 114.695C635.913 114.993 629.284 114.596 622.892 113.602C621.234 113.304 618.867 112.806 617.446 113.403C612.475 115.192 607.976 114.198 603.241 113.403C597.559 112.309 592.351 112.906 587.853 114.894C586.195 115.689 584.065 116.087 581.46 116.087C573.411 116.286 565.598 116.982 558.732 118.87C556.601 119.368 554.234 120.362 551.156 119.865C543.343 118.672 534.347 119.368 526.771 117.578C522.273 116.485 518.485 116.385 513.039 117.479C504.516 119.268 495.283 118.672 486.523 116.683C481.551 115.491 476.816 113.701 470.187 114.993C469.951 115.093 469.24 114.894 468.767 114.795C464.269 113.403 458.35 113.005 453.852 111.514C444.381 108.234 433.491 107.14 421.417 108.83C420.47 108.929 419.286 108.83 418.339 108.83C409.579 108.234 400.109 108.929 391.586 107.438C391.113 107.339 390.166 107.438 389.692 107.538C387.561 108.333 385.194 108.035 382.826 107.935C378.091 107.836 373.593 107.637 368.858 107.538C361.519 107.339 355.837 109.228 349.444 110.222C346.13 110.719 342.815 111.315 339.501 110.818C330.504 109.625 321.745 108.333 312.985 106.742C309.197 106.047 305.172 106.544 301.384 105.748C291.204 103.561 280.076 102.965 268.476 103.462C261.373 103.76 254.034 104.357 246.931 102.965C243.853 102.368 239.829 101.871 236.277 102.07C228.228 102.567 220.415 103.064 212.366 103.164C205.737 103.263 199.108 104.655 192.479 103.164C189.164 102.468 186.086 103.164 183.245 103.86C174.722 105.748 166.199 107.339 156.019 106.941C151.521 106.842 147.496 106.345 143.234 105.848C140.393 105.55 137.316 105.351 135.895 106.643C134.001 108.333 130.923 108.432 127.609 108.432C123.584 108.432 119.559 108.333 115.534 108.432C108.905 108.731 102.75 108.731 96.3576 107.737C91.6226 106.941 86.8876 105.748 81.6791 106.146C78.3646 106.345 75.05 106.146 71.9723 105.748C65.1065 104.953 57.5305 104.456 51.375 105.55C37.8802 108.134 23.2016 108.035 9.70679 109.725C6.39228 110.122 3.07776 109.924 0 109.725V85.071H1367Z" fill="white"/>
<rect x="1" width="1366" height="92.5147" fill="white"/>
</svg>
